Coordinates
version=1
nRows=17
nColumns=36
inDegrees=yes

Units are S.I. units (second, meters, Newtons, ...)
If the header above contains a line with 'inDegrees', this indicates whether rotational values are in degrees (yes) or radians (no).

endheader
time	pelvis_tilt	pelvis_list	pelvis_rotation	pelvis_tx	pelvis_ty	pelvis_tz	hip_flexion_r	hip_adduction_r	hip_rotation_r	knee_angle_r	knee_angle_r_beta	ankle_angle_r	subtalar_angle_r	mtp_angle_r	hip_flexion_l	hip_adduction_l	hip_rotation_l	knee_angle_l	knee_angle_l_beta	ankle_angle_l	subtalar_angle_l	mtp_angle_l	lumbar_extension	lumbar_bending	lumbar_rotation	arm_flex_r	arm_add_r	arm_rot_r	elbow_flex_r	pro_sup_r	arm_flex_l	arm_add_l	arm_rot_l	elbow_flex_l	pro_sup_l
      6.98333330	     -7.44387078	      2.51661772	      2.07444432	      0.52584082	      0.81535491	     -0.14922218	     41.68394153	      6.23187473	      0.60108281	     64.72498352	      1.12966407	     31.96500282	    -11.14692641	     -7.49999987	     59.70880838	      0.09510484	     -5.33142334	     37.45362377	      0.65368905	     -0.53439040	    -12.28965862	     -7.49999987	    -32.82633677	      4.39850900	     -2.92667075	     57.13165153	      9.35177842	     68.60049503	    120.38244222	     95.86743059	     45.18535806	      9.43841647	     69.42927951	    125.91122050	     93.64674774
      7.00000000	     -7.30687840	      2.52387865	      1.62696807	      0.52159018	      0.80954827	     -0.15115978	     42.83395370	      5.98519309	      0.20290588	     66.74666459	      1.16494906	     32.43213589	    -10.34792822	     -7.49999987	     60.25473605	     -0.05059375	     -5.50941084	     37.03884061	      0.64644972	     -0.24617679	    -12.25011870	     -7.49999987	    -34.00603939	      4.41759311	     -2.72041055	     57.69905875	      9.51166928	     69.04541810	    120.61148602	     95.08225937	     45.09798497	      9.37420528	     69.18536246	    126.18484067	     92.73893010
      7.01666670	     -7.13657830	      2.70823440	      1.20351627	      0.51788808	      0.80382244	     -0.14699082	     43.68431999	      5.84283004	     -0.05728215	     68.25128914	      1.19120971	     32.93975180	     -9.27957843	     -7.49999987	     60.64887433	     -0.26141363	     -5.80772520	     36.62630182	      0.63924956	     -0.42544709	    -11.74495529	     -7.49999987	    -35.31911410	      3.94480098	     -2.49692392	     58.57045548	      9.49307000	     69.30162720	    120.27990437	     95.26615057	     45.16594716	      9.25533601	     68.97082921	    126.35277822	     93.02972745
      7.03333330	     -6.98920874	      2.63984325	      0.97605463	      0.52163347	      0.79948967	     -0.14995812	     44.06673562	      5.85021841	     -0.28658155	     69.24587442	      1.20856850	     33.13006621	     -9.25466714	     -7.49999987	     61.01020115	     -0.44160423	     -5.67492748	     36.37327250	      0.63483336	     -0.40118623	    -11.72032315	     -7.49999987	    -36.41514788	      4.04909796	     -2.45790225	     58.49046976	      9.27592437	     69.45729841	    120.13498463	     95.30245453	     44.97490759	      9.05774338	     69.07708819	    126.15222001	     93.07968483
      7.05000000	     -7.05275391	      3.06281264	      0.57923721	      0.51754800	      0.79371929	     -0.15161506	     44.80951714	      5.39542738	     -0.03071939	     70.26060664	      1.22627892	     33.83455757	     -7.96749567	     -7.49999987	     61.48681182	     -0.33158897	     -6.19764359	     35.97356967	      0.62785723	     -0.62637096	    -12.09925718	     -7.49999987	    -37.21956930	      3.51904220	     -2.02540669	     58.72840853	      8.91014430	     69.84914751	    120.58894120	     97.17177939	     45.54344989	      9.31034597	     69.51062391	    125.58993293	     95.79885905
      7.06666670	     -7.04485881	      3.24284070	      0.22271141	      0.51329929	      0.78770132	     -0.14779131	     45.86216904	      5.37188349	      0.09492723	     71.57053282	      1.24914145	     33.99866539	     -7.29409500	     -7.49999987	     61.95212059	     -0.59275887	     -6.36344359	     35.51214318	      0.61980382	     -1.17395321	    -12.22483395	     -7.49999987	    -38.14356459	      3.24348640	     -1.63767815	     59.41423112	      8.80138178	     69.68106931	    120.45285564	     97.13675775	     46.63987920	      9.30048568	     69.55414132	    125.89801009	     95.82632409
      7.08333330	     -7.07856867	      3.37422088	     -0.22378620	      0.51358612	      0.78494910	     -0.14761783	     46.46936678	      5.59081757	      0.22868209	     72.50513860	      1.26545339	     34.37600571	     -6.93569623	     -7.49999987	     62.11779753	     -0.92332045	     -6.75995026	     34.47741241	      0.60174436	     -1.96920505	    -12.53845497	     -7.49999987	    -39.12984244	      2.76157794	     -1.46797625	     59.78611701	      8.64797226	     69.84044585	    120.33121405	     97.20587535	     46.43818908	      9.31422420	     69.71462526	    125.58968103	     95.91315908
      7.10000000	     -7.04325603	      3.51964818	     -0.65858983	      0.51307930	      0.77982961	     -0.14774617	     46.92568686	      5.73031116	      0.43139100	     73.34134129	      1.28004788	     35.01783710	     -6.46659833	     -7.49999987	     62.07863377	     -1.27039246	     -7.32186395	     33.62747878	      0.58691022	     -2.66813296	    -13.04881226	     -7.49999987	    -39.99539757	      2.33958587	     -1.21967205	     59.98813897	      8.44153645	     69.65267843	    120.54145592	     97.28622895	     46.71490230	      9.24492644	     69.82820104	    125.20236821	     96.02859967
      7.11666670	     -7.11530429	      3.52674525	     -0.94544938	      0.51296537	      0.77245091	     -0.14814457	     47.64982908	      6.04081263	      0.65273888	     74.60277964	      1.30206414	     35.55443203	     -6.34267404	     -7.49999987	     62.43138294	     -1.56382862	     -7.51240174	     33.44512802	      0.58372760	     -2.82967499	    -13.42619894	     -7.49999987	    -40.57195085	      2.14376856	     -0.87352357	     60.03757324	      8.38979409	     69.58627463	    121.09449550	     98.42090885	     46.75348943	      9.39980716	     70.07403986	    125.09998489	     97.19959602
      7.13333330	     -7.42686273	      3.73103743	     -1.02394862	      0.51297492	      0.76968928	     -0.14806150	     48.66361382	      6.17773939	      1.09779150	     75.79312876	      1.32283965	     35.81212058	     -6.89088723	     -7.49999987	     63.01956923	     -1.54083445	     -7.82365343	     33.46823855	      0.58413096	     -3.31419436	    -13.46860725	     -7.49999987	    -41.19743581	      2.00281661	     -0.89686547	     60.10546557	      8.32171035	     69.90134258	    121.51661945	     97.64386703	     46.52999205	      9.44891120	     70.24643712	    125.60783069	     96.42025066
      7.15000000	     -7.57098407	      3.91172339	     -1.29445935	      0.50901191	      0.76381944	     -0.14421965	     49.85990106	      6.73801660	      1.69412512	     77.10755282	      1.34578067	     36.03885610	     -7.72673511	     -7.49999987	     63.46928502	     -1.80119740	     -8.24379922	     33.39481728	      0.58284951	     -3.51135367	    -13.49940128	     -7.49999987	    -41.91643853	      1.61143379	     -0.94924010	     60.47554643	      8.59782445	     70.35053164	    121.56637689	     97.80527556	     46.30013983	      9.42908444	     70.26668631	    125.91357616	     96.58301407
      7.16666670	     -7.90876310	      4.05965724	     -1.46990184	      0.50549562	      0.76280415	     -0.14601960	     50.98674015	      7.15340298	      2.21562402	     77.82352569	      1.35827676	     35.62979580	     -8.97812900	     -7.49999987	     64.03807891	     -1.88438619	     -8.56457859	     33.21299207	      0.57967607	     -4.26612280	    -13.49453208	     -7.49999987	    -42.55232083	      1.40390185	     -1.30509362	     61.01064202	      9.11803477	     70.77683936	    121.10018967	     97.84827712	     46.00753963	      9.08579906	     70.30394381	    126.27794004	     96.75439865
      7.18333330	     -7.61497906	      4.17045436	     -1.90403412	      0.50618183	      0.76244707	     -0.14587119	     51.16629922	      7.67278997	      2.80702073	     78.32485587	      1.36702662	     35.58376034	     -9.43892620	     -7.49999987	     63.59940679	     -2.12910213	     -8.99754225	     32.43771097	      0.56614486	     -4.64750469	    -12.81521124	     -7.49999987	    -43.46988434	      1.01185034	     -1.09329501	     61.18610724	      9.01532893	     70.48213196	    121.29594517	     97.00617543	     46.23777954	      8.76302940	     70.03927643	    126.33704963	     96.01458936
      7.20000000	     -7.51279194	      4.13436795	     -2.07047032	      0.50635361	      0.75760350	     -0.14521834	     51.41290509	      8.07050450	      3.04950877	     78.85275861	      1.37624026	     35.59409513	     -9.80866406	     -7.49999987	     63.53758347	     -2.27452190	     -9.14150008	     32.13423526	      0.56084821	     -4.90725232	    -12.24232914	     -7.49999987	    -43.93385063	      0.94540879	     -0.96086889	     61.39895567	      9.25256008	     70.34276621	    121.41418048	     97.09104792	     46.61168133	      8.69664806	     70.14519808	    126.16879208	     96.15174753
      7.21666670	     -7.07361986	      4.22288087	     -2.27993093	      0.50605490	      0.75525717	     -0.14556559	     51.24938868	      8.33372712	      3.38714643	     79.43378415	      1.38638107	     35.57946440	    -10.26050812	     -7.49999987	     63.07707250	     -2.39510595	     -9.41031339	     32.00704286	      0.55862828	     -4.45836506	    -11.28380176	     -7.49999987	    -44.56403972	      0.59072604	     -0.21289074	     61.32967813	      8.71206054	     69.64859402	    121.99791030	     98.11316112	     47.83104895	      8.97514562	     70.74041373	    125.78982891	     97.35644152
      7.23333330	     -7.14735761	      4.29972681	     -2.22121224	      0.50589777	      0.75042500	     -0.14495358	     51.68229549	      8.40520051	      3.47946192	     80.15953775	      1.39904786	     35.86601356	    -10.58441345	     -7.49999987	     63.31831502	     -2.34159875	     -9.39866934	     32.21510841	      0.56225971	     -4.27156197	    -11.11910535	     -7.49999987	    -44.70622229	      0.64661792	     -0.02619170	     61.48424196	      8.81470157	     69.66197809	    121.94290117	     97.63506139	     48.46203209	      9.14023917	     70.84084063	    125.94833969	     96.92408673
      7.25000000	     -7.23697502	      4.39159552	     -2.33029429	      0.50160287	      0.74658911	     -0.14193609	     52.35570273	      8.70185467	      3.60955885	     80.88838582	      1.41176866	     35.99709726	    -10.67866452	     -7.49999987	     63.67677673	     -2.57214133	     -9.51415288	     32.43265249	      0.56605657	     -4.26143576	    -10.91057167	     -7.49999987	    -44.89519644	      0.34514210	      0.09229700	     61.67801411	      8.99953534	     69.31377961	    122.09191603	     98.40767293	     49.03806356	      9.31454632	     71.05663842	    126.55515907	     97.82533992
